<?xml version="1.0" encoding="UTF-8" standalone="no"?><!-- Generator: Gravit.io --><svg xmlns="http://www.w3.org/2000/svg" xmlns:xlink="http://www.w3.org/1999/xlink" style="isolation:isolate" viewBox="0 0 24 24" width="24pt" height="24pt"><defs><clipPath id="_clipPath_ZBC7LmGbyis17M5iO46DNAvH4TjkArku"><rect width="24" height="24"/></clipPath></defs><g clip-path="url(#_clipPath_ZBC7LmGbyis17M5iO46DNAvH4TjkArku)"><path d=" M 19 23.3 L 18.4 22.8 C 16.4 20.9 15 19.7 15 18.2 C 15 17 16 16 17.2 16 C 17.9 16 18.6 16.3 19 16.8 C 19.4 16.3 20.1 16 20.8 16 C 22 16 23 16.9 23 18.2 C 23 19.7 21.6 20.9 19.6 22.8 L 19 23.3 Z  M 18 2 C 19.1 2 20 2.9 20 4 L 20 13.08 L 19 13 L 18 13.08 L 18 4 L 13 4 L 13 12 L 10.5 9.75 L 8 12 L 8 4 L 6 4 L 6 20 L 13.08 20 C 13.2 20.72 13.45 21.39 13.8 22 L 6 22 C 4.9 22 4 21.1 4 20 L 4 4 C 4 2.9 4.9 2 6 2 L 18 2 L 18 2 Z " fill="rgb(18,18,18)"/></g></svg>